<svg width="1733" height="550" viewBox="0 0 1733 550" fill="none" xmlns="http://www.w3.org/2000/svg">
<g filter="url(#filter0_d_1176_6806)">
<path d="M949.5 76L905.5 216H863.868L820.5 76H863.868L885.206 152.119C886.662 156.498 887.952 160.809 889.077 165.055L915 76H949.5Z" fill="black"/>
<path d="M1062.86 181.473V216H960.932V76H1062.86V109.433H1001.72V129.134H1051.15V159.284H1001.72V181.473H1062.86Z" fill="black"/>
<path d="M1195.26 216H1161.41L1124.29 153.91C1119.53 146.216 1114.73 136.862 1109.9 125.851C1112.09 134.607 1113.18 142.036 1113.18 148.139V216H1079.43V76H1118L1150.3 127.841C1156.58 137.725 1161.35 146.415 1164.59 153.91C1162.47 142.302 1161.41 130.428 1161.41 118.289V76H1195.26V216Z" fill="black"/>
<path d="M1218.98 216V76H1271.38C1294.14 76 1311.18 84.8557 1322.49 98.3881C1333.81 111.92 1339.46 127.575 1339.46 145.353C1339.46 165.652 1333.38 182.169 1321.2 194.905C1309.09 207.575 1293.89 216 1274.5 216H1218.98ZM1260.56 182.667H1271.38C1278.26 182.667 1284.05 179.317 1288.75 172.617C1293.51 165.917 1295.89 156.796 1295.89 145.254C1295.89 135.37 1293.78 126.846 1289.54 119.682C1285.37 112.517 1279.32 108.935 1271.38 108.935H1260.56V182.667Z" fill="black"/>
<path d="M1415.69 216C1396.63 216 1381.08 209.665 1369.04 196.995C1357.06 184.325 1351.08 167.376 1351.08 146.149C1351.08 125.851 1356.8 109.101 1368.25 95.9005C1379.76 82.6335 1395.71 76 1416.08 76C1434.94 76 1450.29 82.2355 1462.14 94.7065C1474.05 107.177 1480 123.828 1480 144.657C1480 166.216 1474.01 183.496 1462.04 196.498C1450.06 209.499 1434.61 216 1415.69 216ZM1415.49 185.154C1422.5 185.154 1427.53 182.103 1430.57 176C1433.68 169.831 1435.24 158.587 1435.24 142.269C1435.24 118.653 1428.92 106.846 1416.28 106.846C1402.65 106.846 1395.84 120.312 1395.84 147.244C1395.84 172.517 1402.39 185.154 1415.49 185.154Z" fill="black"/>
<path d="M960.34 421.878V474H820V268H881.445V421.878H960.34Z" fill="#618BB5"/>
<path d="M1065.78 474C1037.62 474 1014.65 464.679 996.855 446.036C979.159 427.393 970.312 402.454 970.312 371.22C970.312 341.352 978.768 316.706 995.681 297.282C1012.69 277.761 1036.25 268 1066.36 268C1094.23 268 1116.91 277.175 1134.41 295.525C1152.01 313.875 1160.8 338.375 1160.8 369.023C1160.8 400.746 1151.96 426.172 1134.26 445.303C1116.57 464.435 1093.74 474 1065.78 474ZM1065.48 428.613C1075.85 428.613 1083.28 424.123 1087.77 415.143C1092.37 406.065 1094.67 389.521 1094.67 365.51C1094.67 330.761 1085.33 313.387 1066.66 313.387C1046.52 313.387 1036.45 333.202 1036.45 372.83C1036.45 410.018 1046.13 428.613 1065.48 428.613Z" fill="#618BB5"/>
<path d="M1359.8 358.921V470.925H1329.74C1327.3 462.629 1324.61 455.65 1321.67 449.989C1309.26 465.996 1290.88 474 1266.54 474C1240.73 474 1219.51 465.02 1202.89 447.06C1186.27 429.003 1177.96 404.601 1177.96 373.855C1177.96 343.987 1185.98 318.902 1202.01 298.6C1218.14 278.2 1242.09 268 1273.87 268C1297.72 268 1316.93 274.052 1331.5 286.155C1346.07 298.258 1355.5 315.437 1359.8 337.692L1300.26 343.548C1297.33 322.758 1288.19 312.362 1272.84 312.362C1252.7 312.362 1242.63 331.493 1242.63 369.756C1242.63 392.888 1245.86 408.164 1252.31 415.582C1258.76 422.903 1266.58 426.563 1275.77 426.563C1283.2 426.563 1289.51 424.318 1294.69 419.828C1299.97 415.338 1302.66 409.189 1302.76 401.38H1269.62V358.921H1359.8Z" fill="#618BB5"/>
<path d="M1453.66 268V474H1392.21V268H1453.66Z" fill="#618BB5"/>
<path d="M1598.83 394.645L1655 398.013C1652.36 422.512 1643.27 441.302 1627.72 454.381C1612.28 467.46 1593.26 474 1570.68 474C1543.5 474 1521.55 465.02 1504.83 447.06C1488.12 429.101 1479.76 404.308 1479.76 372.684C1479.76 341.352 1487.68 316.072 1503.52 296.843C1519.35 277.614 1541.45 268 1569.8 268C1596.29 268 1616.63 275.321 1630.8 289.962C1645.08 304.603 1653.14 324.027 1655 348.233L1597.66 351.308C1597.66 337.936 1595.07 328.272 1589.89 322.318C1584.81 316.364 1578.79 313.387 1571.85 313.387C1552.49 313.387 1542.82 332.811 1542.82 371.659C1542.82 393.425 1545.31 408.213 1550.3 416.021C1555.38 423.83 1562.47 427.734 1571.56 427.734C1587.79 427.734 1596.88 416.705 1598.83 394.645Z" fill="#618BB5"/>
<path d="M268.026 125.457C268.179 125.356 292.604 114.205 322.304 100.677C352.004 87.149 376.641 76.045 377.054 76C377.467 75.955 377.804 165.502 377.804 274.992C377.804 444.244 377.596 474.017 376.417 473.742C375.654 473.564 307.909 414.723 225.873 342.983C128.445 257.784 77.1653 212.304 78.0103 211.846C82.0883 209.634 185.666 162.927 186.408 162.965C186.901 162.991 207.104 182.525 231.304 206.375C255.504 230.225 275.422 249.623 275.566 249.483C275.711 249.342 274.011 221.42 271.789 187.434C269.567 153.448 267.874 125.558 268.026 125.457Z" fill="black"/>
<path d="M258.226 209.167L202.708 154.897L253.236 132.128L258.226 209.167Z" fill="#618BB5"/>
<path d="M757 76H777V474H757V76Z" fill="#618BB5"/>
<path d="M714 376.322V474H434V76H556.591V376.322H714Z" fill="black"/>
</g>
<defs>
<filter id="filter0_d_1176_6806" x="-23" y="-22" width="1793" height="610" filterUnits="userSpaceOnUse" color-interpolation-filters="sRGB">
<feFlood flood-opacity="0" result="BackgroundImageFix"/>
<feColorMatrix in="SourceAlpha" type="matrix" values="0 0 0 0 0 0 0 0 0 0 0 0 0 0 0 0 0 0 127 0" result="hardAlpha"/>
<feOffset dx="7" dy="8"/>
<feGaussianBlur stdDeviation="15"/>
<feComposite in2="hardAlpha" operator="out"/>
<feColorMatrix type="matrix" values="0 0 0 0 0 0 0 0 0 0 0 0 0 0 0 0 0 0 0.25 0"/>
<feBlend mode="normal" in2="BackgroundImageFix" result="effect1_dropShadow_1176_6806"/>
<feBlend mode="normal" in="SourceGraphic" in2="effect1_dropShadow_1176_6806" result="shape"/>
</filter>
</defs>
</svg>
