<svg width="40" height="38" viewBox="0 0 40 38" fill="none" xmlns="http://www.w3.org/2000/svg">
<path d="M26.8582 25.9091C32.1283 27.6093 36.5819 31.1928 39.3628 35.9702C39.4526 36.1251 39.4999 36.3008 39.5 36.4795C39.5001 36.6584 39.453 36.8342 39.3634 36.9892C39.2737 37.1443 39.1446 37.2733 38.9889 37.363C38.8331 37.4527 38.6564 37.5 38.4764 37.5L1.52363 37.4996C1.34362 37.4996 1.16685 37.4523 1.01113 37.3626C0.855414 37.2729 0.726291 37.1439 0.636624 36.9888C0.546961 36.8338 0.499872 36.658 0.5 36.4791C0.500128 36.3005 0.547337 36.125 0.636977 35.9702C3.41786 31.1928 7.87141 27.6093 13.1415 25.9091L14.1961 25.5688L13.2432 25.0033C10.7563 23.5273 8.82421 21.2779 7.74341 18.6008C6.66261 15.9238 6.49277 12.9669 7.25993 10.1843C8.0271 7.40164 9.68892 4.94693 11.9904 3.19732C14.2919 1.4477 17.1058 0.5 19.9998 0.5C22.8939 0.5 25.7078 1.4477 28.0093 3.19732C30.3108 4.94693 31.9726 7.40164 32.7398 10.1843C33.5069 12.9669 33.3371 15.9238 32.2563 18.6008C31.1755 21.2779 29.2434 23.5273 26.7565 25.0033L25.8036 25.5688L26.8582 25.9091Z" fill="#D9D9D9" fill-opacity="0.2" stroke="#C4C4C4"/>
</svg>
