<?xml version="1.0" encoding="utf-8"?>
<!-- Generator: Adobe Illustrator 27.3.1, SVG Export Plug-In . SVG Version: 6.00 Build 0)  -->
<svg version="1.1" id="Calque_1" xmlns="http://www.w3.org/2000/svg" xmlns:xlink="http://www.w3.org/1999/xlink" x="0px" y="0px"
	 viewBox="0 0 256.5 481.4" style="enable-background:new 0 0 256.5 481.4;" xml:space="preserve">
<g>
	<path d="M12.6,477.1c0-6.9,0-13.6,0-20.4c0-1.3-0.1-2.5,0-3.8c0.2-2.3-0.2-4.1-2.4-5.6c-2.4-1.6-2.8-4.4-2.8-7.2
		c0-24.5,0-49,0-73.4c0-49.2,0-98.3,0-147.5c0-54.6,0-109.1,0-163.7c0-12,0-24.1,0-36.1c0-7.2,3.4-10.7,10.6-10.7
		c31.9,0,63.8,0,95.7,0c40.4,0,80.8,0,121.2,0c1.4,0,2.9,0,4.3,0c6.2,0.2,9.7,3.8,9.7,10.1c0,40.3,0,80.6,0,120.9
		c0,53.1,0,106.2,0,159.3c0,46.5,0,92.9,0,139.4c0,4.2-0.5,7.8-4.4,10.3c-0.6,0.4-0.8,1.8-0.8,2.8c-0.1,7.4,0,14.8,0,22.3
		c0,1,0,2.1,0,3.3C166.7,477.1,90,477.1,12.6,477.1z M245.2,229.5c0-69.9,0-139.8,0-209.6c0-5.8-1.7-7.4-7.6-7.4
		c-26.8,0-53.6,0-80.4,0c-46.4,0-92.7,0-139.1,0c-4.9,0-6.7,1.9-6.7,6.8c0,27.9,0,55.7,0,83.6c0,51.7,0,103.3,0,155
		c0,60.7,0,121.5,0,182.2c0,4.5,1.8,6.3,6.3,6.3c23,0,46.1,0,69.1,0c50.5,0,101,0,151.5,0c5.2,0,6.9-1.6,6.9-6.9
		C245.2,369.4,245.2,299.5,245.2,229.5z M16.6,473.2c74.7,0,149,0,223.2,0c0-7.8,0-15.4,0-22.9c-74.5,0-148.8,0-223.2,0
		C16.6,458,16.6,465.6,16.6,473.2z"/>
	<path d="M204.6,46.8c0,98,0,195.8,0,293.8c-57.4,0-114.5,0-171.9,0c0-97.9,0-195.7,0-293.8C89.9,46.8,147.1,46.8,204.6,46.8z
		 M200.5,51C145.8,51,91.4,51,37,51c0,95.2,0,190.2,0,285.3c3.7,0,7.2,0,11,0c0-11.4,0-22.5,0-33.8c8.4,0,16.4,0,24.8,0
		c0,11.4,0,22.6,0,33.9c1.7,0,3,0,4.6,0c0-11.4,0-22.6,0-33.9c8.4,0,16.4,0,24.8,0c0,11.4,0,22.6,0,33.9c1.6,0,2.9,0,4.6,0
		c0-11.4,0-22.6,0-34.1c7.6,0,14.8,0.1,22,0c2.2,0,2.8,0.7,2.7,2.8c-0.1,9.3-0.1,18.7-0.1,28c0,1,0,2.1,0,3.4
		c1.7-0.1,3.1-0.1,4.8-0.2c0-11.5,0-22.6,0-34c7.9,0,15.5,0,23.1,0.1c0.5,0,1.5,1.3,1.5,2.1c0.1,4.3,0.1,8.7,0.1,13
		c0,6.2,0,12.5,0,18.6c4.5,0.9,4.6,0.8,4.6-3.3c0-8.7,0-17.4,0-26c0-1.4,0-2.8,0-4.3c8.4,0,16.4,0,24.8,0c0,11.4,0,22.6,0,33.9
		c3.6,0,6.8,0,10.1,0C200.5,241.1,200.5,146.2,200.5,51z M70.9,304.5c-7.2,0-14,0-21,0c0,10,0,19.7,0.1,29.4c0,0.5,0.8,1.6,1.1,1.5
		c0.8-0.2,1.9-0.6,2.2-1.2c1.5-3.2,3.8-5.1,7.4-5c3.3,0.1,5.5,1.9,6.9,4.9c0.3,0.7,1.5,1,2.3,1.5c0.4-0.8,1-1.5,1-2.3
		c0.1-3.2,0.1-6.3,0.1-9.5C70.9,317.3,70.9,310.9,70.9,304.5z M100,304.5c-7,0-13.7,0-20.6,0c0,10.4,0,20.6,0,30.7
		c2.6,0.4,2.6,0.4,3.4-1.4c1.4-3,3.7-4.7,7-4.7c3.2,0,5.6,1.6,6.7,4.6c0.7,1.9,1.8,2.2,3.5,1.5C100,324.8,100,314.7,100,304.5z
		 M188.3,304.5c-7.1,0-13.9,0-20.8,0c0,9.9,0,19.5,0.1,29.1c0,0.6,0.7,1.3,1.1,1.9c0.8-0.5,1.9-0.8,2.3-1.5c1.4-3,3.6-4.8,6.9-4.8
		c3.3-0.1,5.8,1.6,7,4.6c0.7,1.8,1.7,2.1,3.5,1.4C188.3,324.9,188.3,314.8,188.3,304.5z M138.3,304.4c0,10.4,0,20.6,0,30.8
		c1.9,0.7,2.8,0.1,3.5-1.6c1.2-3,3.6-4.5,6.8-4.5c3.2,0,5.6,1.6,6.8,4.5c0.8,1.8,1.7,2.4,3.5,1.5c0-10.2,0-20.4,0-30.7
		C151.9,304.4,145.2,304.4,138.3,304.4z M129.7,320.1c0-4.5,0-9,0-13.6c0-1.7-0.5-2.4-2.3-2.4c-5.4,0.1-10.8,0.1-16.2,0
		c-2,0-2.6,0.7-2.6,2.7c0.1,8.8,0,17.5,0.1,26.3c0,0.8,0.6,1.6,1,2.3c0.8-0.6,2-0.9,2.5-1.7c1.5-2.9,3.7-4.7,7-4.7
		c3.3,0,5.5,1.8,7,4.7c0.4,0.8,1.6,1.1,2.5,1.7c0.4-0.8,1-1.5,1-2.3C129.8,328.8,129.7,324.5,129.7,320.1z M55,335.3
		c3.7,0,7.1,0,10.8,0c-0.9-2.7-2.5-4.1-5-4.3C57.9,330.8,56,332.2,55,335.3z M143.2,335.2c3.8,0,7.1,0,10.7,0
		c-0.7-2.9-2.5-4.1-5-4.3C146.1,330.9,144.3,332.2,143.2,335.2z M95.1,335.3c-1.1-3.2-3-4.5-5.9-4.3c-2.5,0.2-4.2,1.4-4.7,4.3
		C88.1,335.3,91.4,335.3,95.1,335.3z M113.9,335.2c3.7,0,7.1,0,10.7,0c-1-2.8-2.7-4.1-5.3-4.2C116.6,331,114.8,332.3,113.9,335.2z
		 M183.2,335.4c-1.1-3.4-3.3-4.9-6.1-4.3c-2.3,0.5-3.9,1.7-4.3,4.3C176.4,335.4,179.6,335.4,183.2,335.4z"/>
	<path d="M82.7,406.3c0-6.6,0-13,0-19.6c1.4-0.1,2.7-0.3,4.3-0.5c0-7.4,0-14.8,0-22.4c28,0,55.6,0,83.5,0c0,7.5,0,14.9,0,22.4
		c1.2,0.2,2.1,0.3,3.2,0.5c0,6.5,0,12.9,0,19.6C143.5,406.3,113.2,406.3,82.7,406.3z M91,386.1c25.5,0,50.5,0,75.7,0
		c0-6.3,0-12.4,0-18.5c-25.3,0-50.4,0-75.7,0C91,373.8,91,379.8,91,386.1z M86.6,390.4c0,4.3,0,8.2,0,12.2c27.9,0,55.6,0,83.4,0
		c0-4.1,0-8.1,0-12.2C142.1,390.4,114.5,390.4,86.6,390.4z"/>
	<path d="M240.2,224.6c-10.1,0-20,0-30.1,0c0-33.3,0-66.5,0-99.8c0.5-0.1,1-0.2,1.4-0.2c8.8,0,17.5,0,26.3,0c1.7,0,2.6,0.3,2.6,2.4
		c-0.1,32.1,0,64.2-0.1,96.3C240.4,223.5,240.3,223.9,240.2,224.6z M236.5,128.6c-7.7,0-15.1,0-22.5,0c0,30.9,0,61.6,0,92.3
		c7.6,0,15,0,22.5,0C236.5,190,236.5,159.4,236.5,128.6z"/>
	<path d="M77.6,206.9c8.2,0,16.1,0,24.4,0c0,11.5,0,23,0,34.5c-1.6,1.4-5-1.1-5.8,2.7c5.5,0,10.9,0,16.3,0c-0.4-2-0.4-2-5.4-2.5
		c0-11.5,0-23,0-34.8c3.1,0,6.1,0,9.2,0c4.3,0,8.7-0.1,13,0c0.8,0,2.2,1.1,2.2,1.6c0.1,10.9,0,21.8-0.1,32.7c0,0.2-0.2,0.3-0.3,0.4
		c-1.7,1.1-5-1.3-5.6,2.7c5.5,0,10.9,0,16.5,0c-0.6-3.8-3.7-1.6-5.6-2.8c0-11.2,0-22.7,0-34.7c2.9,0,5.9,0,8.8,0
		c4.5,0,9.1-0.1,13.6,0.1c0.7,0,2,1,2,1.6c0.1,10.9,0,21.8,0,32.7c0,0.2-0.2,0.3-0.2,0.4c-1.7,1.2-5-1.3-5.7,2.7
		c5.5,0,10.9,0,16.4,0c-0.4-2-0.4-2-5.5-2.6c0-11.5,0-22.9,0-34.7c8,0,16,0,24.2,0c0,11.6,0,23,0,34.5c-1.7,1.4-5-1.1-5.7,2.9
		c2.3,0,4.5,0,6.8,0c0,1.4,0,2.4,0,3.7c-48.2,0-96.5,0-144.9,0c0-1.1,0-2.2,0-3.6c2.6,0,5,0,7.7,0c-0.5-4.1-3.8-1.7-5.7-3
		c-0.1-0.3-0.3-1-0.3-1.6c0-10.2,0-20.4,0-30.6c0-1.4,0.1-2.4,1.9-2.4c7.2,0.1,14.5,0,21.7,0.1c0.3,0,0.5,0.2,1,0.3
		c0,11.4,0,22.8,0,34.2c-1.6,1.5-5.2-1.1-5.7,2.9c5.5,0,10.9,0,16.3,0c-0.3-1.9-0.3-1.9-5.5-2.8C77.6,230.1,77.6,218.7,77.6,206.9z
		 M69.8,240.2c0.3-0.2,0.6-0.5,0.9-0.7c0-10.2,0-20.3,0-30.9c-6.7,0-13.2,0-19.7,0.1c-0.4,0-1.2,1.5-1.2,2.4c-0.1,8.8,0,17.5,0,26.3
		c0,0.7,0.2,1.5,0.4,3.2c1.3-1.1,2.4-1.6,2.7-2.4c1.5-3.9,3.9-5.9,7.3-5.9c3.4,0,5.9,2.1,7.4,5.8C68,238.9,69.1,239.5,69.8,240.2z
		 M100,239.5c0-10.3,0-20.5,0-30.7c-7,0-13.7,0-20.6,0c0,10.4,0,20.5,0,30.7c1.7,0.6,2.7,0.6,3.2-1.5c0.9-3.6,3.6-5.7,7.1-5.7
		c3.4,0,6.3,2,7.2,5.5C97.4,239.8,98.2,240.2,100,239.5z M108.8,239.6c1.9,0.8,2.7,0.3,3.2-1.6c1-3.6,3.8-5.6,7.1-5.6
		c3.4,0,6.2,1.9,7.2,5.6c0.5,2.1,1.5,2.3,3.2,1.7c0-10.3,0-20.4,0-30.7c-7,0-13.8,0-20.7,0C108.8,219.2,108.8,229.3,108.8,239.6z
		 M188.3,239.5c0-10.1,0-20.3,0-30.6c-6.9,0-13.8,0-20.8,0c0,9.9,0,19.5,0.1,29.1c0,0.6,0.8,1.2,1.2,1.8c0.6-0.5,1.6-0.9,1.8-1.6
		c1.5-4,3.8-5.9,7.2-6c3.4-0.1,6.2,2,7.3,5.8C185.7,239.9,186.6,240.1,188.3,239.5z M138.2,208.8c0,10.3,0,20.5,0,30.7
		c1.6,0.5,2.5,0.6,3.1-1.3c1.1-3.9,4-6,7.6-5.9c3.6,0.2,6,2.4,7.1,6.5c0.1,0.3,0.3,0.7,0.4,1.1c0.9-0.1,1.6-0.1,2.5-0.2
		c0-10.3,0-20.5,0-30.9C152,208.8,145.2,208.8,138.2,208.8z M154,239.8c-0.5-3.8-2.8-5.8-6-5.5c-3,0.3-4.7,2.3-4.6,5.5
		C146.9,239.8,150.3,239.8,154,239.8z M114,239.6c3.5,0,7.1,0,10.7,0c-0.6-3.7-2.8-5.7-6-5.4C115.8,234.5,114,236.5,114,239.6z
		 M172.7,239.7c3.5,0,7,0,10.5,0c-0.1-3.5-2-5.4-5.1-5.5C175,234.2,172.8,236.3,172.7,239.7z M95.1,239.7c-0.6-3.9-2.8-5.9-6-5.5
		c-2.9,0.3-4.7,2.5-4.5,5.5C88.1,239.7,91.5,239.7,95.1,239.7z M55,239.6c3.7,0,7.2,0,10.7,0c-0.4-3.5-2.4-5.4-5.4-5.4
		C57.3,234.3,55.4,236.2,55,239.6z M114.3,242c1.7,3.5,4.6,2.2,6.8,2.3c1,0,2-1,3.1-1.6c-0.1-0.2-0.2-0.5-0.4-0.7
		C120.7,242,117.7,242,114.3,242z M94.5,242.1c-3.3,0-6.3,0-9.6,0C87.1,245.3,92.5,245.3,94.5,242.1z M55.4,241.9
		c1.8,3.6,4.7,2.3,7,2.4c1,0,1.9-1.1,2.9-1.7c-0.1-0.2-0.3-0.4-0.4-0.7C61.8,241.9,58.8,241.9,55.4,241.9z M182.8,242.9
		c-0.1-0.3-0.2-0.5-0.3-0.8c-3,0-6.1,0-9.3,0c1.5,2.5,1.8,2.7,6.2,2.3C180.6,244.2,181.7,243.4,182.8,242.9z M143.9,242
		c1.4,2.5,1.4,2.4,5.6,2.4c1.7,0,3.3-0.1,3.8-2.4C150.2,242,147.2,242,143.9,242z"/>
	<path d="M102,111.4c0,11.5,0,22.9,0,34.3c-2,1.2-5.5-1-6.2,3.1c5.7,0,11.4,0,17,0c-0.5-2.3-0.5-2.3-5.8-2.9c0-11.4,0-22.8,0-34.5
		c8,0,16,0,24.3,0c0,11.4,0,22.9,0,34.4c-2.1,1-5.5-1.1-6.1,3c5.8,0,11.4,0,17.2,0c-0.5-4.2-4-1.9-6-3.1c0-11.3,0-22.7,0-34.4
		c8.2,0,16.2,0,24.5,0c0,11.5,0,22.9,0,34.4c-1.9,1.3-5.6-1.2-6.2,3.1c5.8,0,11.4,0,17.2,0c-0.5-4.1-3.9-2.1-6-3
		c0-11.3,0-22.7,0-34.4c8,0,16,0,24.3,0c0,11.5,0,22.9,0,34.4c-1.8,1.2-5.4-1.1-6.1,3.1c2.4,0,4.6,0,7.1,0c0,1.4,0,2.5,0,3.8
		c-48.3,0-96.6,0-144.9,0c0-1.2,0-2.2,0-3.6c2.7,0,5.4,0,8.1,0c-0.6-4.3-4-2.1-6.2-3.2c0-11.3,0-22.7,0-34.4c8.1,0,16.2,0,24.4,0
		c0,11.5,0,22.9,0,34.4c-1.9,1.2-5.4-1.1-6.1,3c5.7,0,11.4,0,17,0c-0.5-2.2-0.5-2.2-5.9-2.9c0-11.4,0-22.8,0-34.5
		C85.6,111.4,93.7,111.4,102,111.4z M50,143.9c2.6,0.3,2.6,0.3,3.1-1.7c0.9-3.6,3.8-5.9,7.2-6c3.4,0,6.2,2.3,7.3,5.9
		c0.3,0.8,1.3,1.4,2,2.1c0.4-0.8,1.2-1.6,1.2-2.4c0.1-8.9,0.1-17.7,0-26.6c0-0.6-0.2-1.3-0.3-1.9c-6.9,0-13.7,0-20.6,0
		C50,123.5,50,133.6,50,143.9z M79.4,143.9c2.6,0.4,2.6,0.4,3.1-1.6c0.9-3.6,3.7-6,7.1-6c3.5-0.1,6.6,2.3,7.4,6.1
		c0.4,2.1,1.4,2.2,3.1,1.6c0-10.2,0-20.4,0-30.7c-7,0-13.7,0-20.6,0C79.4,123.6,79.4,133.8,79.4,143.9z M158.9,144.1
		c0-10.4,0-20.6,0-30.9c-6.9,0-13.7,0-20.6,0c0,10.4,0,20.5,0,30.9c1,0,1.8,0,2.5,0c1.5-5.3,3.9-7.8,7.7-7.8
		c3.9-0.1,6.5,2.5,7.9,7.9C157.1,144.1,157.8,144.1,158.9,144.1z M170.1,144.1c1.6-5.4,3.8-7.7,7.6-7.8c3.8-0.2,6.2,2.1,8.2,7.8
		c2.2,0.7,2.6-0.4,2.6-2.3c-0.1-8.8,0-17.5,0-26.3c0-0.7-0.2-1.5-0.3-2.1c-7,0-13.8,0-20.7,0c0,9.9,0,19.5,0,29.1
		C167.5,144.5,168.7,144.4,170.1,144.1z M129.7,143.9c0-7.9,0-15.6,0-23.4c-0.1-7.4-0.1-7.4-7.6-7.5c-4.4,0-8.8,0-13.3,0
		c0,10.6,0,20.8,0,30.9c2,0.9,2.7,0.2,3.1-1.7c0.9-3.7,3.7-5.9,7.2-6c3.6,0,6.5,2.3,7.3,6.1C126.8,144.3,127.6,144.5,129.7,143.9z
		 M143.2,144c3.6,0,7.2,0,10.7,0c-0.3-3.8-2.3-5.9-5.6-5.8C145.3,138.3,143.3,140.4,143.2,144z M124.6,144.1c-0.4-4-2.6-6.1-6-5.8
		c-3,0.3-4.8,2.4-4.7,5.8C117.4,144.1,120.9,144.1,124.6,144.1z M172.6,144c3.7,0,7.1,0,10.6,0c0-3.6-1.9-5.7-5.1-5.8
		C174.9,138.2,172.8,140.3,172.6,144z M65.7,144.1c0-3.8-2.3-6.1-5.7-5.9c-3.1,0.2-5.1,2.5-4.8,5.9C58.6,144.1,62,144.1,65.7,144.1z
		 M95.1,144.1c0-3.7-2.1-5.9-5.3-5.9c-3.2,0-5.4,2.4-5.2,5.9C88,144.1,91.6,144.1,95.1,144.1z M123.8,146.4c-3.2,0-6.1,0-9.2,0
		C117,149.8,121.4,149.8,123.8,146.4z M85.1,146.3c1.1,2.8,3.3,2.8,5.4,2.5c1.3-0.2,2.6-1,3.9-1.6c-0.1-0.3-0.2-0.6-0.4-0.9
		C91.1,146.3,88.2,146.3,85.1,146.3z M55.8,146.3c1.2,2.8,3.4,2.8,5.4,2.5c1.3-0.2,2.6-1.1,3.9-1.7c-0.1-0.3-0.3-0.6-0.4-0.8
		C61.8,146.3,58.9,146.3,55.8,146.3z M144,146.4c2.5,3.6,7,3.6,9.1,0C150,146.4,147.1,146.4,144,146.4z M182.5,146.4
		c-3.1,0-6,0-9.2,0C175.9,149.9,180.3,149.9,182.5,146.4z"/>
	<path d="M125.6,101.1c5.6,0,10.9,0,16.3,0c-0.5-2.2-0.5-2.2-5.5-2.8c0-11.5,0-23,0-34.9c4,0,7.9,0,11.8,0c3.5,0,6.9,0.1,10.4,0
		c1.8,0,2.4,0.6,2.3,2.3c-0.1,10.1-0.1,20.2,0,30.4c0,1.9-0.6,2.7-2.5,2.4c-1.7-0.2-3.3-0.1-3.6,2.5c5.5,0,10.9,0,16.3,0
		c-0.2-2.1-0.2-2.1-5.4-2.7c0-11.5,0-23,0-34.7c8,0,16,0,24.2,0c0,11.6,0,23,0,34.5c-1.7,1.3-5-1.1-5.7,2.9c2.2,0.1,4.4,0.2,6.8,0.3
		c0.1,1.1,0.1,2.1,0.2,3.4c-48.4,0-96.6,0-145.2,0c-0.1-1-0.1-2-0.2-3.3c2.7,0,5.2,0,7.9,0c-0.4-4.3-3.8-2.1-5.8-3.3
		c0-0.7-0.1-1.5-0.1-2.3c0-9.7,0.1-19.5-0.1-29.2c0-2.3,0.5-3.2,3-3.2c7.1,0.2,14.2,0.1,21.6,0.1c0,11.8,0,23.3,0,34.6
		c-1.8,1.3-5.1-1.1-5.7,2.9c5.5,0,11,0,16.5,0c-0.5-4-3.9-1.6-5.8-2.9c0-11.3,0-22.8,0-34.4c8.1,0,16.2,0,24.4,0
		c0,11.5,0,22.9,0,34.4c-1.6,1.4-5.2-1.1-5.8,2.9c5.5,0,10.9,0,16.3,0c-0.3-2.1-0.3-2.1-5.4-2.7c0-11.5,0-23,0-34.8
		c5.3,0,10.5,0,15.6,0c2.1,0,4.2,0.1,6.4,0c2.1-0.2,2.6,0.7,2.6,2.7c-0.1,9.7-0.1,19.5,0,29.2c0,2.4-0.5,3.7-3.2,3.2
		C126.7,98.3,125.7,99.1,125.6,101.1z M70.7,65.6c-7,0-13.8,0-20.7,0c0,10.3,0,20.6,0,30.8c2.5,0.3,2.5,0.3,3.1-1.7
		c1.1-3.5,3.8-5.6,7.2-5.6c3.4,0,6.2,2,7.2,5.6c0.5,2,1.4,2.5,3.3,1.7C70.7,86.1,70.7,76,70.7,65.6z M79.4,65.6
		c0,10.5,0,20.6,0,30.8c2.5,0.3,2.5,0.3,3.1-1.6c1.1-3.5,3.7-5.6,7.2-5.6c3.4,0,6.3,2,7.2,5.6c0.5,2.2,1.4,2.3,3.2,1.7
		c0-10.3,0-20.5,0-30.8C93.1,65.6,86.4,65.6,79.4,65.6z M111.4,96.6c0.1-0.4,0.3-0.8,0.4-1.1c1.2-4.1,3.6-6.2,7.2-6.3
		c3.7-0.1,6.2,1.8,7.4,6c0.6,2,1.6,1.7,3.1,1.2c0-10.2,0-20.4,0-30.7c-7,0-13.7,0-20.6,0c0,10.4,0,20.6,0,30.9
		C109.9,96.6,110.6,96.6,111.4,96.6z M188.2,96.5c0-10.4,0-20.6,0-30.9c-7,0-13.8,0-20.6,0c0,10.4,0,20.6,0,30.8
		c2.5,0.2,2.5,0.2,3-1.5c0.1-0.2,0.1-0.4,0.2-0.6c1.1-3.3,3.8-5.3,7.1-5.3c3.2,0,5.9,2,7,5.1c0.3,0.8,0.5,1.6,0.8,2.5
		C186.7,96.6,187.4,96.6,188.2,96.5z M158.9,65.7c-7.1,0-13.9,0-20.7,0c0,10.4,0,20.6,0,30.9c1,0,1.8,0,2.6,0
		c0.1-0.4,0.3-0.6,0.3-0.9c1.1-4.1,3.5-6.4,7-6.5c3.7-0.2,6.5,1.8,7.7,6c0.6,2,1.7,1.6,3,1.3C158.9,86.1,158.9,76,158.9,65.7z
		 M84.5,96.5c3.5,0,7.1,0,10.6,0c-0.5-3.6-2.6-5.6-5.6-5.5C86.6,91.1,84.7,93.2,84.5,96.5z M124.6,96.6c-0.5-3.9-3.1-6-6.2-5.5
		c-2.9,0.4-4.6,2.7-4.2,5.5C117.5,96.6,121,96.6,124.6,96.6z M65.6,96.5c-0.1-3.4-2.3-5.6-5.3-5.5c-3.1,0-5.2,2.3-5.2,5.5
		C58.6,96.5,62.1,96.5,65.6,96.5z M153.9,96.5c-0.5-3.7-2.6-5.6-5.6-5.5c-3,0.1-4.9,2.1-5.1,5.5C146.7,96.5,150.2,96.5,153.9,96.5z
		 M183.2,96.6c0.1-3.4-2.1-5.6-5.2-5.6c-3.1,0-5.3,2.4-5,5.6C176.3,96.6,179.7,96.6,183.2,96.6z M84.9,98.8c0.7,2.1,2,2.7,3.8,2.5
		c2.1-0.2,4.7,0.8,5.9-2.5C91.3,98.8,88.2,98.8,84.9,98.8z M114.3,98.7c1.5,2.7,2.3,3,6.6,2.5c1.1-0.1,2.2-1.1,3.3-1.7
		c-0.1-0.3-0.3-0.5-0.4-0.8C120.7,98.7,117.7,98.7,114.3,98.7z M173,98.7c1.7,3.8,4.6,2.4,7,2.5c1,0,1.9-1.1,2.9-1.7
		c-0.1-0.2-0.3-0.5-0.4-0.7C179.4,98.7,176.4,98.7,173,98.7z M65.3,99.6c-0.1-0.2-0.3-0.5-0.4-0.7c-3.1,0-6.2,0-9.5,0
		c1.5,3.5,4.3,2.4,6.6,2.3C63.1,101.2,64.2,100.1,65.3,99.6z M143.8,98.7c1.2,3.4,3.8,2.4,5.9,2.5c1.7,0.1,3.2-0.3,3.7-2.5
		C150.2,98.7,147.2,98.7,143.8,98.7z"/>
	<path d="M136.4,159.2c8.2,0,16.1,0,24.4,0c0,11.6,0,23.1,0,34.5c-1.9,1.2-5.3-1.2-5.9,2.9c5.6,0,11.2,0,16.8,0
		c-0.7-2.1-0.7-2.1-5.8-2.8c0-11.4,0-22.8,0-34.5c8,0,16.1,0,24.3,0c0,11.5,0,22.9,0,34.3c-1.8,1.3-5.2-1.2-5.9,3c2.3,0,4.5,0,6.9,0
		c0,1.4,0,2.4,0,3.6c-48.4,0-96.6,0-145,0c0-1.1,0-2.1,0-3.5c2.6,0,5.2,0,7.9,0c-0.5-4.2-3.8-2.1-5.9-3.1c0-11.4,0-22.9,0-34.5
		c8.1,0,16.1,0,24.3,0c0,11.5,0,22.9,0,34.4c-1.6,1.4-5.3-1.3-5.8,2.9c5.6,0,11.1,0,16.8,0c-0.5-4-3.8-1.9-5.9-2.9
		c0-11.3,0-22.8,0-34.4c8.2,0,16.2,0,24.4,0c0,11.6,0,23,0,34.4c-1.9,1.3-5.3-1.1-5.9,2.9c5.6,0,11.1,0,16.7,0
		c-0.4-3.9-3.7-1.9-5.8-2.8c0-11.3,0-22.8,0-34.5c8.1,0,16.2,0,24.4,0c0,11.6,0,23,0,34.3c-1.9,1.3-5.4-1.1-5.9,3
		c5.6,0,11.1,0,16.7,0c-0.4-4-3.8-1.8-5.8-2.9C136.4,182.4,136.4,171,136.4,159.2z M50,161c0,10.4,0,20.6,0,30.7
		c2.5,0.4,2.5,0.4,3.1-1.6c1.1-3.5,3.8-5.7,7.1-5.7c3.4-0.1,6,2.1,7.3,5.5c0.3,0.9,1.3,1.5,2,2.2c0.4-0.9,1.3-1.8,1.3-2.7
		c0.1-8.9,0.1-17.7,0-26.6c0-0.6-0.2-1.1-0.3-1.8C63.8,161,57.1,161,50,161z M79.4,161c0,10.5,0,20.6,0,30.8
		c2.6,0.3,2.6,0.3,3.1-1.4c1.1-3.9,3.5-5.9,7.1-6c3.5-0.1,6.4,2,7.4,5.7c0.5,2,1.4,2.2,3.1,1.6c0-10.2,0-20.4,0-30.7
		C93.2,161,86.5,161,79.4,161z M129.4,192c0-10.4,0-20.6,0-30.9c-7,0-13.7,0-20.6,0c0,10.4,0,20.5,0,30.7c2.2,1,2.7-0.2,3.2-1.9
		c1-3.3,3.5-5.2,6.8-5.4c3-0.2,5.8,1.4,7,4.1c0.5,1,0.7,2.2,1.1,3.4C127.8,192,128.6,192,129.4,192z M138.2,191.8
		c1.9,0.6,2.7,0.2,3.1-1.6c1-3.8,4.1-6,7.6-5.8c3.6,0.2,6.1,2.5,7.1,6.5c0.1,0.4,0.2,0.7,0.4,1.1c0.9,0,1.6,0,2.5,0
		c0-10.4,0-20.6,0-30.8c-7,0-13.8,0-20.6,0C138.2,171.5,138.2,181.6,138.2,191.8z M169.9,193c1.8-6.2,3.9-8.5,7.6-8.6
		c5.1-0.2,7.3,3.2,8.2,7.4c2.2,0.7,2.8-0.2,2.7-2.1c-0.1-4.5,0-9.1,0-13.6c0-5,0-10,0-15.1c-7.1,0-13.9,0-20.5,0
		c-0.2,0.4-0.3,0.5-0.3,0.7c0,9.5-0.1,19.1,0,28.6C167.6,191.1,168.8,191.8,169.9,193z M143.3,191.9c3.6,0,7.1,0,10.7,0
		c-0.6-3.7-2.6-5.6-5.7-5.5C145.3,186.5,143.4,188.4,143.3,191.9z M172.7,191.9c3.5,0,7,0,10.4,0c0.1-3.4-1.8-5.4-4.8-5.6
		C175.1,186.2,172.8,188.4,172.7,191.9z M124.5,191.9c-0.1-3.6-2.4-5.8-5.6-5.6c-3.1,0.1-4.9,2.2-4.9,5.6
		C117.5,191.9,121,191.9,124.5,191.9z M84.4,191.9c3.7,0,7.2,0,10.7,0c-0.3-3.6-2.1-5.5-5.1-5.6C86.9,186.2,84.8,188.2,84.4,191.9z
		 M54.9,191.9c3.7,0,7.2,0,10.7,0c-0.1-3.4-2-5.5-5-5.6C57.5,186.2,55.4,188.2,54.9,191.9z M55.5,194.1c1.5,3.6,4.3,2.6,6.6,2.5
		c1.1,0,2.1-1.1,3.2-1.8c-0.1-0.2-0.3-0.5-0.4-0.7C61.8,194.1,58.8,194.1,55.5,194.1z M94.6,195.1c-0.1-0.3-0.2-0.6-0.4-0.9
		c-3,0-6.1,0-9.3,0c1.7,2.6,1.7,2.7,6,2.4C92.2,196.5,93.4,195.6,94.6,195.1z M153.5,194.9c-0.1-0.2-0.3-0.4-0.4-0.6
		c-3,0-6.1,0-9.3,0c1.4,3.3,4.1,2.5,6.4,2.4C151.3,196.6,152.4,195.5,153.5,194.9z M114.4,194.1c1.3,3.4,3.9,2.6,6.1,2.5
		c1.2-0.1,2.4-1,3.7-1.6c-0.1-0.3-0.3-0.6-0.4-0.9C120.7,194.1,117.7,194.1,114.4,194.1z M182.7,194.2c-3.3,0-6.3,0-9.5,0
		c1,2.9,3.3,2.5,5.3,2.5C180.3,196.8,181.9,196.6,182.7,194.2z"/>
	<path d="M46,292.1c2.9,0,5.3,0,7.9,0c-0.6-2-0.6-2-5.7-3.1c0-11.4,0-22.8,0-34.4c8.2,0,16.2,0,24.5,0c0,11.6,0,23,0,34.4
		c-5,1-5,1-5.8,2.8c5.5,0,10.9,0,16.3,0c-0.4-2-0.4-2-5.5-2.7c0-11.4,0-22.8,0-34.5c8.1,0,16.1,0,24.4,0c0,11.5,0,23,0,34.3
		c-1.8,1.3-5.1-1.1-5.8,2.9c5.5,0,10.9,0,16.3,0c-0.5-2.1-0.5-2.1-5.4-2.7c0-11.4,0-22.8,0-34.5c8,0,16,0,24.3,0
		c0,11.5,0,22.9,0,34.3c-1.9,1.2-5.1-1.1-5.8,2.8c5.5,0,10.9,0,16.4,0c-0.3-4-3.8-1.6-5.6-2.9c0-11.3,0-22.7,0-34.3
		c8.2,0,16.2,0,24.5,0c0,11.5,0,23,0,34.3c-1.8,1.4-5.3-1.1-5.9,2.9c5.5,0,10.9,0,16.5,0c-0.3-4-3.7-1.7-5.6-2.9
		c0-11.3,0-22.7,0-34.4c8.1,0,16.1,0,24.3,0c0,11.5,0,22.9,0,34.4c-1.7,0.3-3.4,0.5-5,0.9c-0.4,0.1-0.5,1-1,1.9
		c2.4,0.1,4.5,0.2,7,0.3c0,1.1,0.1,2.1,0.1,3.4c-48.4,0-96.6,0-145.1,0C46.2,294.7,46.1,293.7,46,292.1z M70.9,287.1
		c0-9.7,0-19.5-0.1-29.3c0-0.5-1.2-1.4-1.8-1.4c-3.3-0.1-6.5,0-9.8,0c-3,0-6.1,0-9.2,0c0,10.6,0,20.7,0,30.9
		c2.5,0.3,2.5,0.3,3.2-1.7c1.2-3.5,3.8-5.5,7.2-5.5c3.4,0,6.1,2,7.1,5.6C68.1,287.5,68.9,288,70.9,287.1z M100.1,287.3
		c0-10.3,0-20.5,0-30.7c-7,0-13.7,0-20.6,0c0,10.4,0,20.6,0,30.7c1.8,0.6,2.7,0.4,3.2-1.7c0.9-3.6,3.7-5.6,7.1-5.6
		c3.4,0,6.2,2.1,7.2,5.6C97.4,287.5,98.2,287.8,100.1,287.3z M108.9,256.5c0,10.4,0,20.7,0,30.8c2.2,0.8,2.7-0.2,3.2-1.9
		c1-3.3,3.8-5.3,7.1-5.4c3.4,0,6,1.9,7.1,5.3c0.4,1.2,0.5,2.8,2.2,2.1c0.7-0.3,1.2-1.8,1.2-2.7c0.1-8.3,0.1-16.6,0-24.9
		c0-1.1-0.2-2.2-0.2-3.4C122.4,256.5,115.7,256.5,108.9,256.5z M167.6,287.3c2.5,0.2,2.5,0.2,3.1-1.6c1.2-3.7,3.7-5.7,7.1-5.7
		c3.5-0.1,6.2,1.9,7.3,5.8c0.6,2,1.6,2,3.1,1.4c0-10.3,0-20.5,0-30.6c-7,0-13.8,0-20.6,0C167.6,266.9,167.6,277,167.6,287.3z
		 M158.8,287.4c0-10.4,0-20.6,0-30.8c-7,0-13.8,0-20.5,0c0,10.4,0,20.6,0,30.8c0.2,0.2,0.5,0.4,0.7,0.6c0.7-0.7,1.9-1.2,2.2-2
		c1.5-3.9,4.1-6,7.6-5.9c3.6,0.1,6,2.3,7.2,6.4c0.1,0.3,0.3,0.7,0.4,1.1C157.2,287.5,158,287.5,158.8,287.4z M124.6,287.5
		c-0.4-3.7-2.8-5.8-5.9-5.5c-2.9,0.3-4.7,2.4-4.6,5.5C117.5,287.5,120.9,287.5,124.6,287.5z M65.6,287.4c-0.1-3.5-2.2-5.5-5.3-5.5
		c-3.1,0-5.2,2.2-5.2,5.5C58.6,287.4,62.1,287.4,65.6,287.4z M95.1,287.5c-0.4-3.7-2.5-5.7-5.6-5.6c-3,0.2-5,2.3-5,5.6
		C88,287.5,91.4,287.5,95.1,287.5z M153.8,287.5c-0.1-3.5-2.3-5.7-5.6-5.5c-3,0.2-5,2.5-4.7,5.5
		C146.9,287.5,150.2,287.5,153.8,287.5z M183.2,287.5c-0.3-3.6-2.4-5.7-5.5-5.5c-3,0.1-4.9,2.2-4.9,5.5
		C176.2,287.5,179.6,287.5,183.2,287.5z M143.6,289.6c1.6,3.7,4.5,2.5,6.7,2.4c1.1,0,2.1-1.1,3.2-1.7c-0.1-0.2-0.3-0.5-0.4-0.7
		C150.1,289.6,147.1,289.6,143.6,289.6z M114.2,289.6c1.7,3.7,4.6,2.4,6.9,2.4c1,0,2.1-1.1,3.1-1.8c-0.1-0.2-0.3-0.5-0.4-0.7
		C120.7,289.6,117.7,289.6,114.2,289.6z M94.7,289.7c-3.4,0-6.5,0-9.8,0C87,293.1,92.4,293.1,94.7,289.7z M65.3,289.6
		c-3.4,0-6.5,0-9.6,0c-0.1,0.3-0.2,0.7-0.3,1c1.3,0.5,2.6,1.4,3.9,1.5C61.4,292.2,64,293,65.3,289.6z M173,289.6
		c1.3,3.5,4.2,2.4,6.4,2.5c1.6,0.1,3-0.4,3.1-2.5C179.4,289.6,176.4,289.6,173,289.6z"/>
	<path d="M234.9,191.7c-6.6,0-13,0-19.6,0c0-7.5,0-14.8,0-22.3c6.5,0,12.9,0,19.6,0C234.9,176.7,234.9,184.1,234.9,191.7z
		 M232.6,185.3c0-4.5,0-8.9,0-13.4c-5,0-9.8,0-14.5,0c0,4.6,0,9,0,13.4C223,185.3,227.7,185.3,232.6,185.3z M218,188.2
		c0,0.3,0,0.5,0,0.8c4.9,0,9.7,0,14.6,0c0-0.3,0-0.5,0-0.8C227.7,188.2,222.9,188.2,218,188.2z"/>
	<path d="M235.9,163.7c-7.4,0-13.9,0-20.6,0c-1-4.5,0.8-8.5,1.7-12.7c0.1-0.4,1.3-0.7,1.9-0.7c4.1-0.1,8.3-0.1,12.4,0
		c0.8,0,2,0.7,2.1,1.2C234.4,155.4,235.1,159.4,235.9,163.7z M232,157.3c-0.3-4.6-0.3-4.6-4.5-4.6c-1.8,0-3.6,0-5.5,0
		c-3.4,0-4.1,1-3.1,4.6C223.2,157.3,227.6,157.3,232,157.3z M217.6,160.3c0,0.3,0,0.5,0,0.8c5.1,0,10.1,0,15.2,0c0-0.3,0-0.5,0-0.8
		C227.8,160.3,222.7,160.3,217.6,160.3z"/>
	<path d="M233,139.7c0,2.8,0,5.3,0,8c-5.2,0-10.3,0-15.7,0c0-2.6,0-5.2,0-8C222.5,139.7,227.5,139.7,233,139.7z"/>
	<path d="M232.9,132.3c0,1.1,0,2,0,3.3c-5.2,0-10.4,0-15.7,0c0-1,0-2,0-3.3C222.4,132.3,227.5,132.3,232.9,132.3z"/>
	<path d="M233,203c0,1.2,0,2.2,0,3.3c-2.7,0-5.3,0-8.3,0c0-1-0.1-2-0.2-3.3C227.4,203,230,203,233,203z"/>
	<path d="M219.5,201.6c1,1.5,2.2,2.5,2.1,3.2c-0.2,0.9-1.4,1.6-2.2,2.4c-0.7-0.8-1.9-1.6-2.1-2.5C217.2,204,218.4,203.1,219.5,201.6
		z"/>
</g>
</svg>
